<mxfile host="app.diagrams.net" modified="2023-06-04T10:37:08.561Z" agent="Mozilla/5.0 (Windows NT 10.0; Win64; x64) AppleWebKit/537.36 (KHTML, like Gecko) Chrome/113.0.0.0 Safari/537.36" etag="ZdMSS2HclscPOskD8toJ" version="21.3.7" type="github">
  <diagram id="C5RBs43oDa-KdzZeNtuy" name="Page-1">
    <mxGraphModel dx="1793" dy="985" grid="0" gridSize="10" guides="1" tooltips="1" connect="1" arrows="1" fold="1" page="1" pageScale="1" pageWidth="827" pageHeight="1169" math="0" shadow="0">
      <root>
        <mxCell id="WIyWlLk6GJQsqaUBKTNV-0" />
        <mxCell id="WIyWlLk6GJQsqaUBKTNV-1" parent="WIyWlLk6GJQsqaUBKTNV-0" />
        <mxCell id="WIyWlLk6GJQsqaUBKTNV-2" value="" style="rounded=0;html=1;jettySize=auto;orthogonalLoop=1;fontSize=11;endArrow=classic;endFill=1;endSize=6;strokeWidth=1;shadow=0;labelBackgroundColor=none;edgeStyle=orthogonalEdgeStyle;" parent="WIyWlLk6GJQsqaUBKTNV-1" source="WIyWlLk6GJQsqaUBKTNV-3" target="WIyWlLk6GJQsqaUBKTNV-6" edge="1">
          <mxGeometry relative="1" as="geometry" />
        </mxCell>
        <mxCell id="WIyWlLk6GJQsqaUBKTNV-3" value="실시간 영상" style="rounded=1;whiteSpace=wrap;html=1;fontSize=12;glass=0;strokeWidth=1;shadow=0;" parent="WIyWlLk6GJQsqaUBKTNV-1" vertex="1">
          <mxGeometry x="302" y="31" width="120" height="40" as="geometry" />
        </mxCell>
        <mxCell id="WIyWlLk6GJQsqaUBKTNV-4" value="Yes" style="rounded=0;html=1;jettySize=auto;orthogonalLoop=1;fontSize=11;endArrow=classic;endFill=1;endSize=6;strokeWidth=1;shadow=0;labelBackgroundColor=none;edgeStyle=orthogonalEdgeStyle;entryX=0.5;entryY=0;entryDx=0;entryDy=0;strokeColor=#000000;" parent="WIyWlLk6GJQsqaUBKTNV-1" source="WIyWlLk6GJQsqaUBKTNV-6" target="hAu4gckfmcWxkXwyotBU-0" edge="1">
          <mxGeometry x="-0.75" y="18" relative="1" as="geometry">
            <mxPoint as="offset" />
            <mxPoint x="362" y="241" as="targetPoint" />
          </mxGeometry>
        </mxCell>
        <mxCell id="WIyWlLk6GJQsqaUBKTNV-5" value="No" style="edgeStyle=orthogonalEdgeStyle;rounded=0;html=1;jettySize=auto;orthogonalLoop=1;fontSize=11;endArrow=classic;endFill=1;endSize=6;strokeWidth=1;shadow=0;labelBackgroundColor=none;entryX=1;entryY=0.5;entryDx=0;entryDy=0;" parent="WIyWlLk6GJQsqaUBKTNV-1" source="WIyWlLk6GJQsqaUBKTNV-6" target="WIyWlLk6GJQsqaUBKTNV-3" edge="1">
          <mxGeometry x="-0.9" y="10" relative="1" as="geometry">
            <mxPoint as="offset" />
            <mxPoint x="462" y="161" as="targetPoint" />
            <Array as="points">
              <mxPoint x="442" y="161" />
              <mxPoint x="442" y="51" />
            </Array>
          </mxGeometry>
        </mxCell>
        <mxCell id="hAu4gckfmcWxkXwyotBU-3" style="edgeStyle=orthogonalEdgeStyle;rounded=0;orthogonalLoop=1;jettySize=auto;html=1;entryX=0.5;entryY=0;entryDx=0;entryDy=0;" edge="1" parent="WIyWlLk6GJQsqaUBKTNV-1" target="hAu4gckfmcWxkXwyotBU-2">
          <mxGeometry relative="1" as="geometry">
            <mxPoint x="360" y="231" as="sourcePoint" />
          </mxGeometry>
        </mxCell>
        <mxCell id="WIyWlLk6GJQsqaUBKTNV-6" value="MediaPipe&lt;br&gt;관절추출" style="rhombus;whiteSpace=wrap;html=1;shadow=0;fontFamily=Helvetica;fontSize=12;align=center;strokeWidth=1;spacing=6;spacingTop=-4;" parent="WIyWlLk6GJQsqaUBKTNV-1" vertex="1">
          <mxGeometry x="312" y="121" width="100" height="80" as="geometry" />
        </mxCell>
        <mxCell id="hAu4gckfmcWxkXwyotBU-7" style="edgeStyle=orthogonalEdgeStyle;rounded=0;orthogonalLoop=1;jettySize=auto;html=1;entryX=0.5;entryY=0;entryDx=0;entryDy=0;" edge="1" parent="WIyWlLk6GJQsqaUBKTNV-1" source="hAu4gckfmcWxkXwyotBU-0" target="hAu4gckfmcWxkXwyotBU-5">
          <mxGeometry relative="1" as="geometry">
            <mxPoint x="362" y="371" as="targetPoint" />
            <Array as="points">
              <mxPoint x="363" y="351" />
              <mxPoint x="363" y="351" />
            </Array>
          </mxGeometry>
        </mxCell>
        <mxCell id="hAu4gckfmcWxkXwyotBU-0" value="y = 팔꿈치,무릎&lt;br&gt;&amp;nbsp;회전각" style="rounded=0;whiteSpace=wrap;html=1;" vertex="1" parent="WIyWlLk6GJQsqaUBKTNV-1">
          <mxGeometry x="302" y="281" width="120" height="50" as="geometry" />
        </mxCell>
        <mxCell id="hAu4gckfmcWxkXwyotBU-1" value="z = 벡터의 방향,속도" style="rounded=0;whiteSpace=wrap;html=1;" vertex="1" parent="WIyWlLk6GJQsqaUBKTNV-1">
          <mxGeometry x="440" y="281" width="120" height="50" as="geometry" />
        </mxCell>
        <mxCell id="hAu4gckfmcWxkXwyotBU-15" style="edgeStyle=orthogonalEdgeStyle;rounded=0;orthogonalLoop=1;jettySize=auto;html=1;exitX=0.5;exitY=1;exitDx=0;exitDy=0;" edge="1" parent="WIyWlLk6GJQsqaUBKTNV-1" source="hAu4gckfmcWxkXwyotBU-2" target="hAu4gckfmcWxkXwyotBU-5">
          <mxGeometry relative="1" as="geometry" />
        </mxCell>
        <mxCell id="hAu4gckfmcWxkXwyotBU-2" value="x = 관절좌표" style="rounded=0;whiteSpace=wrap;html=1;" vertex="1" parent="WIyWlLk6GJQsqaUBKTNV-1">
          <mxGeometry x="160" y="281" width="120" height="50" as="geometry" />
        </mxCell>
        <mxCell id="hAu4gckfmcWxkXwyotBU-4" style="edgeStyle=orthogonalEdgeStyle;rounded=0;orthogonalLoop=1;jettySize=auto;html=1;entryX=0.5;entryY=0;entryDx=0;entryDy=0;" edge="1" parent="WIyWlLk6GJQsqaUBKTNV-1">
          <mxGeometry relative="1" as="geometry">
            <mxPoint x="360" y="231" as="sourcePoint" />
            <mxPoint x="500" y="281" as="targetPoint" />
          </mxGeometry>
        </mxCell>
        <mxCell id="hAu4gckfmcWxkXwyotBU-23" style="edgeStyle=orthogonalEdgeStyle;rounded=0;orthogonalLoop=1;jettySize=auto;html=1;entryX=0.5;entryY=0;entryDx=0;entryDy=0;" edge="1" parent="WIyWlLk6GJQsqaUBKTNV-1" source="hAu4gckfmcWxkXwyotBU-5" target="hAu4gckfmcWxkXwyotBU-13">
          <mxGeometry relative="1" as="geometry">
            <Array as="points">
              <mxPoint x="362" y="471" />
              <mxPoint x="362" y="471" />
            </Array>
          </mxGeometry>
        </mxCell>
        <mxCell id="hAu4gckfmcWxkXwyotBU-5" value="data =[ x,y,z].flatten()" style="rounded=0;whiteSpace=wrap;html=1;" vertex="1" parent="WIyWlLk6GJQsqaUBKTNV-1">
          <mxGeometry x="303" y="401" width="120" height="60" as="geometry" />
        </mxCell>
        <mxCell id="hAu4gckfmcWxkXwyotBU-13" value="&lt;br&gt;Window Size&lt;br&gt;(30)" style="rhombus;whiteSpace=wrap;html=1;shadow=0;fontFamily=Helvetica;fontSize=12;align=center;strokeWidth=1;spacing=6;spacingTop=-4;" vertex="1" parent="WIyWlLk6GJQsqaUBKTNV-1">
          <mxGeometry x="303" y="491" width="118" height="80" as="geometry" />
        </mxCell>
        <mxCell id="hAu4gckfmcWxkXwyotBU-16" style="edgeStyle=orthogonalEdgeStyle;rounded=0;orthogonalLoop=1;jettySize=auto;html=1;exitX=0.5;exitY=1;exitDx=0;exitDy=0;entryX=0.5;entryY=0;entryDx=0;entryDy=0;" edge="1" parent="WIyWlLk6GJQsqaUBKTNV-1" source="hAu4gckfmcWxkXwyotBU-1" target="hAu4gckfmcWxkXwyotBU-5">
          <mxGeometry relative="1" as="geometry">
            <mxPoint x="428.25" y="411" as="sourcePoint" />
            <mxPoint x="571.25" y="481" as="targetPoint" />
          </mxGeometry>
        </mxCell>
        <mxCell id="hAu4gckfmcWxkXwyotBU-25" value="No" style="edgeStyle=orthogonalEdgeStyle;rounded=0;html=1;jettySize=auto;orthogonalLoop=1;fontSize=11;endArrow=classic;endFill=1;endSize=6;strokeWidth=1;shadow=0;labelBackgroundColor=none;entryX=1;entryY=0.5;entryDx=0;entryDy=0;exitX=1;exitY=0.5;exitDx=0;exitDy=0;" edge="1" parent="WIyWlLk6GJQsqaUBKTNV-1" source="hAu4gckfmcWxkXwyotBU-13" target="WIyWlLk6GJQsqaUBKTNV-3">
          <mxGeometry x="-0.9768" y="10" relative="1" as="geometry">
            <mxPoint as="offset" />
            <mxPoint x="430" y="536" as="sourcePoint" />
            <mxPoint x="440" y="426" as="targetPoint" />
            <Array as="points">
              <mxPoint x="570" y="531" />
              <mxPoint x="570" y="51" />
            </Array>
          </mxGeometry>
        </mxCell>
        <mxCell id="hAu4gckfmcWxkXwyotBU-26" value="GRU 모델" style="rhombus;whiteSpace=wrap;html=1;shadow=0;fontFamily=Helvetica;fontSize=12;align=center;strokeWidth=1;spacing=6;spacingTop=-4;" vertex="1" parent="WIyWlLk6GJQsqaUBKTNV-1">
          <mxGeometry x="302" y="601" width="118" height="80" as="geometry" />
        </mxCell>
        <mxCell id="hAu4gckfmcWxkXwyotBU-27" value="Yes" style="edgeStyle=orthogonalEdgeStyle;rounded=0;html=1;jettySize=auto;orthogonalLoop=1;fontSize=11;endArrow=classic;endFill=1;endSize=6;strokeWidth=1;shadow=0;labelBackgroundColor=none;exitX=0.5;exitY=1;exitDx=0;exitDy=0;entryX=0.5;entryY=0;entryDx=0;entryDy=0;" edge="1" parent="WIyWlLk6GJQsqaUBKTNV-1" source="hAu4gckfmcWxkXwyotBU-13" target="hAu4gckfmcWxkXwyotBU-26">
          <mxGeometry x="-0.2903" y="19" relative="1" as="geometry">
            <mxPoint as="offset" />
            <mxPoint x="610" y="631" as="sourcePoint" />
            <mxPoint x="590" y="581" as="targetPoint" />
            <Array as="points">
              <mxPoint x="361" y="571" />
            </Array>
          </mxGeometry>
        </mxCell>
        <mxCell id="hAu4gckfmcWxkXwyotBU-29" value="No" style="edgeStyle=orthogonalEdgeStyle;rounded=0;html=1;jettySize=auto;orthogonalLoop=1;fontSize=11;endArrow=classic;endFill=1;endSize=6;strokeWidth=1;shadow=0;labelBackgroundColor=none;exitX=1;exitY=0.5;exitDx=0;exitDy=0;entryX=1;entryY=0.5;entryDx=0;entryDy=0;" edge="1" parent="WIyWlLk6GJQsqaUBKTNV-1" source="hAu4gckfmcWxkXwyotBU-26" target="WIyWlLk6GJQsqaUBKTNV-3">
          <mxGeometry x="-0.9768" y="10" relative="1" as="geometry">
            <mxPoint as="offset" />
            <mxPoint x="431" y="541" as="sourcePoint" />
            <mxPoint x="430" y="55" as="targetPoint" />
            <Array as="points">
              <mxPoint x="570" y="641" />
              <mxPoint x="570" y="51" />
            </Array>
          </mxGeometry>
        </mxCell>
        <mxCell id="hAu4gckfmcWxkXwyotBU-44" style="edgeStyle=orthogonalEdgeStyle;rounded=0;orthogonalLoop=1;jettySize=auto;html=1;entryX=0.5;entryY=0;entryDx=0;entryDy=0;" edge="1" parent="WIyWlLk6GJQsqaUBKTNV-1">
          <mxGeometry relative="1" as="geometry">
            <mxPoint x="360" y="775" as="sourcePoint" />
            <mxPoint x="361" y="805" as="targetPoint" />
            <Array as="points">
              <mxPoint x="361" y="775" />
            </Array>
          </mxGeometry>
        </mxCell>
        <mxCell id="hAu4gckfmcWxkXwyotBU-31" value="도출 값 저장" style="rounded=0;whiteSpace=wrap;html=1;" vertex="1" parent="WIyWlLk6GJQsqaUBKTNV-1">
          <mxGeometry x="303" y="715" width="120" height="60" as="geometry" />
        </mxCell>
        <mxCell id="hAu4gckfmcWxkXwyotBU-34" value="Yes" style="edgeStyle=orthogonalEdgeStyle;rounded=0;html=1;jettySize=auto;orthogonalLoop=1;fontSize=11;endArrow=classic;endFill=1;endSize=6;strokeWidth=1;shadow=0;labelBackgroundColor=none;exitX=0.5;exitY=1;exitDx=0;exitDy=0;entryX=0.5;entryY=0;entryDx=0;entryDy=0;" edge="1" parent="WIyWlLk6GJQsqaUBKTNV-1">
          <mxGeometry x="-0.2903" y="19" relative="1" as="geometry">
            <mxPoint as="offset" />
            <mxPoint x="1411" y="1380" as="sourcePoint" />
            <mxPoint x="1410" y="1410" as="targetPoint" />
            <Array as="points">
              <mxPoint x="1410" y="1380" />
            </Array>
          </mxGeometry>
        </mxCell>
        <mxCell id="hAu4gckfmcWxkXwyotBU-36" value="Yes" style="edgeStyle=orthogonalEdgeStyle;rounded=0;html=1;jettySize=auto;orthogonalLoop=1;fontSize=11;endArrow=classic;endFill=1;endSize=6;strokeWidth=1;shadow=0;labelBackgroundColor=none;exitX=0.5;exitY=1;exitDx=0;exitDy=0;entryX=0.5;entryY=0;entryDx=0;entryDy=0;" edge="1" parent="WIyWlLk6GJQsqaUBKTNV-1">
          <mxGeometry x="-0.2903" y="19" relative="1" as="geometry">
            <mxPoint as="offset" />
            <mxPoint x="362" y="683" as="sourcePoint" />
            <mxPoint x="361" y="713" as="targetPoint" />
            <Array as="points">
              <mxPoint x="361" y="683" />
            </Array>
          </mxGeometry>
        </mxCell>
        <mxCell id="hAu4gckfmcWxkXwyotBU-37" value="Fall 후&lt;br&gt;Lie 인가?" style="rhombus;whiteSpace=wrap;html=1;shadow=0;fontFamily=Helvetica;fontSize=12;align=center;strokeWidth=1;spacing=6;spacingTop=-4;" vertex="1" parent="WIyWlLk6GJQsqaUBKTNV-1">
          <mxGeometry x="302" y="805" width="118" height="80" as="geometry" />
        </mxCell>
        <mxCell id="hAu4gckfmcWxkXwyotBU-45" value="No" style="edgeStyle=orthogonalEdgeStyle;rounded=0;html=1;jettySize=auto;orthogonalLoop=1;fontSize=11;endArrow=classic;endFill=1;endSize=6;strokeWidth=1;shadow=0;labelBackgroundColor=none;exitX=1;exitY=0.5;exitDx=0;exitDy=0;entryX=1;entryY=0.5;entryDx=0;entryDy=0;" edge="1" parent="WIyWlLk6GJQsqaUBKTNV-1" source="hAu4gckfmcWxkXwyotBU-37" target="WIyWlLk6GJQsqaUBKTNV-3">
          <mxGeometry x="-0.9768" y="10" relative="1" as="geometry">
            <mxPoint as="offset" />
            <mxPoint x="430" y="651" as="sourcePoint" />
            <mxPoint x="430" y="45" as="targetPoint" />
            <Array as="points">
              <mxPoint x="570" y="845" />
              <mxPoint x="570" y="51" />
            </Array>
          </mxGeometry>
        </mxCell>
        <mxCell id="hAu4gckfmcWxkXwyotBU-47" value="Yes" style="edgeStyle=orthogonalEdgeStyle;rounded=0;html=1;jettySize=auto;orthogonalLoop=1;fontSize=11;endArrow=classic;endFill=1;endSize=6;strokeWidth=1;shadow=0;labelBackgroundColor=none;exitX=0.5;exitY=1;exitDx=0;exitDy=0;entryX=0.5;entryY=0;entryDx=0;entryDy=0;" edge="1" parent="WIyWlLk6GJQsqaUBKTNV-1">
          <mxGeometry x="-0.2903" y="19" relative="1" as="geometry">
            <mxPoint as="offset" />
            <mxPoint x="362" y="886" as="sourcePoint" />
            <mxPoint x="361" y="916" as="targetPoint" />
            <Array as="points">
              <mxPoint x="361" y="886" />
            </Array>
          </mxGeometry>
        </mxCell>
        <mxCell id="hAu4gckfmcWxkXwyotBU-48" value="낙상 감지" style="rounded=1;whiteSpace=wrap;html=1;fontSize=12;glass=0;strokeWidth=1;shadow=0;" vertex="1" parent="WIyWlLk6GJQsqaUBKTNV-1">
          <mxGeometry x="303" y="915" width="120" height="40" as="geometry" />
        </mxCell>
      </root>
    </mxGraphModel>
  </diagram>
</mxfile>
